<svg id="visual" viewBox="0 0 900 600" width="900" height="600" xmlns="http://www.w3.org/2000/svg" xmlns:xlink="http://www.w3.org/1999/xlink" version="1.1"><rect x="0" y="0" width="900" height="600" fill="#000000"></rect><defs><linearGradient id="grad1_0" x1="33.3%" y1="100%" x2="100%" y2="0%"><stop offset="20%" stop-color="#000000" stop-opacity="1"></stop><stop offset="80%" stop-color="#000000" stop-opacity="1"></stop></linearGradient></defs><defs><linearGradient id="grad2_0" x1="0%" y1="100%" x2="66.7%" y2="0%"><stop offset="20%" stop-color="#000000" stop-opacity="1"></stop><stop offset="80%" stop-color="#000000" stop-opacity="1"></stop></linearGradient></defs><g transform="translate(900, 600)"><path d="M-486.7 0C-456.1 -53.8 -425.5 -107.7 -406.5 -168.4C-387.5 -229.1 -380 -296.6 -344.2 -344.2C-308.4 -391.7 -244.2 -419.3 -182.2 -439.8C-120.1 -460.2 -60 -473.5 0 -486.7L0 0Z" fill="#ffffff"></path></g><g transform="translate(0, 0)"><path d="M486.7 0C483 66.8 479.3 133.6 449.7 186.3C420.1 239 364.6 277.6 316.1 316.1C267.6 354.6 226 392.9 174.5 421.3C123 449.7 61.5 468.2 0 486.7L0 0Z" fill="#ffffff"></path></g></svg>