<svg id="visual" viewBox="0 0 900 600" width="900" height="600" xmlns="http://www.w3.org/2000/svg" xmlns:xlink="http://www.w3.org/1999/xlink" version="1.1"><rect x="0" y="0" width="900" height="600" fill="#000000"></rect><defs><linearGradient id="grad1_0" x1="33.3%" y1="100%" x2="100%" y2="0%"><stop offset="20%" stop-color="#000000" stop-opacity="1"></stop><stop offset="80%" stop-color="#000000" stop-opacity="1"></stop></linearGradient></defs><defs><linearGradient id="grad2_0" x1="0%" y1="100%" x2="66.7%" y2="0%"><stop offset="20%" stop-color="#000000" stop-opacity="1"></stop><stop offset="80%" stop-color="#000000" stop-opacity="1"></stop></linearGradient></defs><g transform="translate(900, 600)"><path d="M-486.7 0C-463.3 -56.3 -439.9 -112.6 -420.4 -174.1C-400.9 -235.7 -385.3 -302.4 -344.2 -344.2C-303.1 -385.9 -236.5 -402.6 -174.9 -422.2C-113.3 -441.8 -56.6 -464.3 0 -486.7L0 0Z" fill="#ffffff"></path></g><g transform="translate(0, 0)"><path d="M486.7 0C457.9 55.8 429 111.6 406.5 168.4C384 225.2 367.8 283 333 333C298.3 383.1 244.9 425.4 186.3 449.7C127.7 474 63.8 480.4 0 486.7L0 0Z" fill="#ffffff"></path></g></svg>